<svg width="1024" height="753" viewBox="0 0 1024 753" fill="none" xmlns="http://www.w3.org/2000/svg">
<g clip-path="url(#clip0_175_1901)">
<rect width="1024" height="753" fill="#121214"/>
<g opacity="0.2" filter="url(#filter0_f_175_1901)">
<ellipse cx="520.5" cy="32" rx="670.5" ry="350" fill="#B3A659"/>
</g>
<path d="M41.0349 268C42.5302 268 43.6622 268.63 44.4308 269.891C45.2134 271.138 45.6047 272.953 45.6047 275.336C45.6047 277.719 45.2134 279.541 44.4308 280.802C43.6622 282.063 42.5302 282.693 41.0349 282.693C39.5536 282.693 38.4216 282.063 37.639 280.802C36.8564 279.541 36.4651 277.719 36.4651 275.336C36.4651 272.967 36.8564 271.152 37.639 269.891C38.4216 268.63 39.5536 268 41.0349 268ZM37.9534 275.336C37.9534 277.026 38.1072 278.35 38.4146 279.306L43.0683 270.099C42.5791 269.448 41.9013 269.122 41.0349 269.122C40.0706 269.122 39.316 269.635 38.771 270.66C38.2259 271.672 37.9534 273.23 37.9534 275.336ZM41.0349 281.55C42.0131 281.55 42.7748 281.044 43.3198 280.033C43.8648 279.008 44.1373 277.442 44.1373 275.336C44.1373 273.549 43.9627 272.163 43.6133 271.18L38.9596 280.469C39.4627 281.19 40.1545 281.55 41.0349 281.55Z" fill="url(#paint0_linear_175_1901)" fill-opacity="0.6"/>
<path d="M42.2926 305.135H45.3741V306.236H37.3874V305.135H40.9511V293.455L37.5551 295.471L36.9682 294.536L41.1607 291.959H42.2926V305.135Z" fill="url(#paint1_linear_175_1901)" fill-opacity="0.6"/>
<path d="M41.0349 315.502C42.5302 315.502 43.6622 316.133 44.4308 317.393C45.2134 318.64 45.6047 320.455 45.6047 322.838C45.6047 325.221 45.2134 327.043 44.4308 328.304C43.6622 329.565 42.5302 330.195 41.0349 330.195C39.5536 330.195 38.4216 329.565 37.639 328.304C36.8564 327.043 36.4651 325.221 36.4651 322.838C36.4651 320.469 36.8564 318.654 37.639 317.393C38.4216 316.133 39.5536 315.502 41.0349 315.502ZM37.9534 322.838C37.9534 324.529 38.1072 325.852 38.4146 326.808L43.0683 317.601C42.5791 316.95 41.9013 316.624 41.0349 316.624C40.0706 316.624 39.316 317.137 38.771 318.162C38.2259 319.174 37.9534 320.732 37.9534 322.838ZM41.0349 329.052C42.0131 329.052 42.7748 328.546 43.3198 327.535C43.8648 326.51 44.1373 324.944 44.1373 322.838C44.1373 321.051 43.9627 319.665 43.6133 318.682L38.9596 327.971C39.4627 328.692 40.1545 329.052 41.0349 329.052Z" fill="url(#paint2_linear_175_1901)" fill-opacity="0.6"/>
<path d="M42.2926 352.637H45.3741V353.738H37.3874V352.637H40.9511V340.957L37.5551 342.973L36.9682 342.038L41.1607 339.461H42.2926V352.637Z" fill="url(#paint3_linear_175_1901)" fill-opacity="0.6"/>
<path d="M42.2926 376.388H45.3741V377.489H37.3874V376.388H40.9511V364.708L37.5551 366.724L36.9682 365.789L41.1607 363.212H42.2926V376.388Z" fill="url(#paint4_linear_175_1901)" fill-opacity="0.6"/>
<path d="M41.0349 386.755C42.5302 386.755 43.6622 387.386 44.4308 388.646C45.2134 389.893 45.6047 391.708 45.6047 394.091C45.6047 396.474 45.2134 398.296 44.4308 399.557C43.6622 400.818 42.5302 401.448 41.0349 401.448C39.5536 401.448 38.4216 400.818 37.639 399.557C36.8564 398.296 36.4651 396.474 36.4651 394.091C36.4651 391.722 36.8564 389.907 37.639 388.646C38.4216 387.386 39.5536 386.755 41.0349 386.755ZM37.9534 394.091C37.9534 395.782 38.1072 397.105 38.4146 398.061L43.0683 388.854C42.5791 388.203 41.9013 387.878 41.0349 387.878C40.0706 387.878 39.316 388.39 38.771 389.415C38.2259 390.427 37.9534 391.985 37.9534 394.091ZM41.0349 400.305C42.0131 400.305 42.7748 399.8 43.3198 398.788C43.8648 397.763 44.1373 396.197 44.1373 394.091C44.1373 392.304 43.9627 390.919 43.6133 389.935L38.9596 399.225C39.4627 399.945 40.1545 400.305 41.0349 400.305Z" fill="url(#paint5_linear_175_1901)" fill-opacity="0.6"/>
<path d="M42.2926 423.89H45.3741V424.992H37.3874V423.89H40.9511V412.21L37.5551 414.226L36.9682 413.291L41.1607 410.714H42.2926V423.89Z" fill="url(#paint6_linear_175_1901)" fill-opacity="0.6"/>
<path d="M41.0349 434.257C42.5302 434.257 43.6622 434.888 44.4308 436.149C45.2134 437.396 45.6047 439.211 45.6047 441.594C45.6047 443.977 45.2134 445.798 44.4308 447.059C43.6622 448.32 42.5302 448.95 41.0349 448.95C39.5536 448.95 38.4216 448.32 37.639 447.059C36.8564 445.798 36.4651 443.977 36.4651 441.594C36.4651 439.224 36.8564 437.409 37.639 436.149C38.4216 434.888 39.5536 434.257 41.0349 434.257ZM37.9534 441.594C37.9534 443.284 38.1072 444.607 38.4146 445.563L43.0683 436.356C42.5791 435.705 41.9013 435.38 41.0349 435.38C40.0706 435.38 39.316 435.892 38.771 436.918C38.2259 437.929 37.9534 439.488 37.9534 441.594ZM41.0349 447.807C42.0131 447.807 42.7748 447.302 43.3198 446.29C43.8648 445.265 44.1373 443.699 44.1373 441.594C44.1373 439.806 43.9627 438.421 43.6133 437.437L38.9596 446.727C39.4627 447.447 40.1545 447.807 41.0349 447.807Z" fill="url(#paint7_linear_175_1901)" fill-opacity="0.6"/>
<path d="M41.0349 458.008C42.5302 458.008 43.6622 458.639 44.4308 459.9C45.2134 461.147 45.6047 462.962 45.6047 465.345C45.6047 467.728 45.2134 469.549 44.4308 470.81C43.6622 472.071 42.5302 472.701 41.0349 472.701C39.5536 472.701 38.4216 472.071 37.639 470.81C36.8564 469.549 36.4651 467.728 36.4651 465.345C36.4651 462.975 36.8564 461.16 37.639 459.9C38.4216 458.639 39.5536 458.008 41.0349 458.008ZM37.9534 465.345C37.9534 467.035 38.1072 468.358 38.4146 469.314L43.0683 460.107C42.5791 459.456 41.9013 459.131 41.0349 459.131C40.0706 459.131 39.316 459.643 38.771 460.669C38.2259 461.68 37.9534 463.239 37.9534 465.345ZM41.0349 471.558C42.0131 471.558 42.7748 471.053 43.3198 470.041C43.8648 469.016 44.1373 467.451 44.1373 465.345C44.1373 463.557 43.9627 462.172 43.6133 461.188L38.9596 470.478C39.4627 471.198 40.1545 471.558 41.0349 471.558Z" fill="url(#paint8_linear_175_1901)" fill-opacity="0.6"/>
<path d="M42.2926 495.143H45.3741V496.245H37.3874V495.143H40.9511V483.464L37.5551 485.48L36.9682 484.544L41.1607 481.967H42.2926V495.143Z" fill="url(#paint9_linear_175_1901)" fill-opacity="0.6"/>
<path d="M41.0349 505.511C42.5302 505.511 43.6622 506.141 44.4308 507.402C45.2134 508.649 45.6047 510.464 45.6047 512.847C45.6047 515.23 45.2134 517.052 44.4308 518.312C43.6622 519.573 42.5302 520.204 41.0349 520.204C39.5536 520.204 38.4216 519.573 37.639 518.312C36.8564 517.052 36.4651 515.23 36.4651 512.847C36.4651 510.478 36.8564 508.663 37.639 507.402C38.4216 506.141 39.5536 505.511 41.0349 505.511ZM37.9534 512.847C37.9534 514.537 38.1072 515.86 38.4146 516.816L43.0683 507.61C42.5791 506.958 41.9013 506.633 41.0349 506.633C40.0706 506.633 39.316 507.145 38.771 508.171C38.2259 509.182 37.9534 510.741 37.9534 512.847ZM41.0349 519.061C42.0131 519.061 42.7748 518.555 43.3198 517.543C43.8648 516.518 44.1373 514.953 44.1373 512.847C44.1373 511.059 43.9627 509.674 43.6133 508.69L38.9596 517.98C39.4627 518.7 40.1545 519.061 41.0349 519.061Z" fill="url(#paint10_linear_175_1901)" fill-opacity="0.6"/>
<path d="M42.2926 542.645H45.3741V543.747H37.3874V542.645H40.9511V530.966L37.5551 532.982L36.9682 532.046L41.1607 529.469H42.2926V542.645Z" fill="url(#paint11_linear_175_1901)" fill-opacity="0.6"/>
<path d="M42.2926 566.396H45.3741V567.498H37.3874V566.396H40.9511V554.717L37.5551 556.733L36.9682 555.798L41.1607 553.221H42.2926V566.396Z" fill="url(#paint12_linear_175_1901)" fill-opacity="0.6"/>
<path d="M79.9651 315.502C81.4604 315.502 82.5924 316.133 83.361 317.393C84.1436 318.64 84.5349 320.455 84.5349 322.838C84.5349 325.221 84.1436 327.043 83.361 328.304C82.5924 329.565 81.4604 330.195 79.9651 330.195C78.4838 330.195 77.3518 329.565 76.5692 328.304C75.7866 327.043 75.3953 325.221 75.3953 322.838C75.3953 320.469 75.7866 318.654 76.5692 317.393C77.3518 316.133 78.4838 315.502 79.9651 315.502ZM76.8836 322.838C76.8836 324.529 77.0374 325.852 77.3448 326.808L81.9985 317.601C81.5093 316.95 80.8315 316.624 79.9651 316.624C79.0008 316.624 78.2462 317.137 77.7012 318.162C77.1561 319.174 76.8836 320.732 76.8836 322.838ZM79.9651 329.052C80.9433 329.052 81.705 328.546 82.25 327.535C82.795 326.51 83.0675 324.944 83.0675 322.838C83.0675 321.051 82.8928 319.665 82.5435 318.682L77.8898 327.971C78.3929 328.692 79.0847 329.052 79.9651 329.052Z" fill="url(#paint13_linear_175_1901)" fill-opacity="0.6"/>
<path d="M81.2228 352.637H84.3043V353.738H76.3176V352.637H79.8812V340.957L76.4853 342.973L75.8984 342.038L80.0909 339.461H81.2228V352.637Z" fill="url(#paint14_linear_175_1901)" fill-opacity="0.6"/>
<path d="M79.9651 363.004C81.4604 363.004 82.5924 363.635 83.361 364.895C84.1436 366.142 84.5349 367.957 84.5349 370.34C84.5349 372.723 84.1436 374.545 83.361 375.806C82.5924 377.067 81.4604 377.697 79.9651 377.697C78.4838 377.697 77.3518 377.067 76.5692 375.806C75.7866 374.545 75.3953 372.723 75.3953 370.34C75.3953 367.971 75.7866 366.156 76.5692 364.895C77.3518 363.635 78.4838 363.004 79.9651 363.004ZM76.8836 370.34C76.8836 372.031 77.0374 373.354 77.3448 374.31L81.9985 365.103C81.5093 364.452 80.8315 364.126 79.9651 364.126C79.0008 364.126 78.2462 364.639 77.7012 365.664C77.1561 366.676 76.8836 368.234 76.8836 370.34ZM79.9651 376.554C80.9433 376.554 81.705 376.049 82.25 375.037C82.795 374.012 83.0675 372.446 83.0675 370.34C83.0675 368.553 82.8928 367.168 82.5435 366.184L77.8898 375.474C78.3929 376.194 79.0847 376.554 79.9651 376.554Z" fill="url(#paint15_linear_175_1901)" fill-opacity="0.6"/>
<path d="M79.9651 386.755C81.4604 386.755 82.5924 387.386 83.361 388.646C84.1436 389.893 84.5349 391.708 84.5349 394.091C84.5349 396.474 84.1436 398.296 83.361 399.557C82.5924 400.818 81.4604 401.448 79.9651 401.448C78.4838 401.448 77.3518 400.818 76.5692 399.557C75.7866 398.296 75.3953 396.474 75.3953 394.091C75.3953 391.722 75.7866 389.907 76.5692 388.646C77.3518 387.386 78.4838 386.755 79.9651 386.755ZM76.8836 394.091C76.8836 395.782 77.0374 397.105 77.3448 398.061L81.9985 388.854C81.5093 388.203 80.8315 387.878 79.9651 387.878C79.0008 387.878 78.2462 388.39 77.7012 389.415C77.1561 390.427 76.8836 391.985 76.8836 394.091ZM79.9651 400.305C80.9433 400.305 81.705 399.8 82.25 398.788C82.795 397.763 83.0675 396.197 83.0675 394.091C83.0675 392.304 82.8928 390.919 82.5435 389.935L77.8898 399.225C78.3929 399.945 79.0847 400.305 79.9651 400.305Z" fill="url(#paint16_linear_175_1901)" fill-opacity="0.6"/>
<path d="M81.2228 423.89H84.3043V424.992H76.3176V423.89H79.8812V412.21L76.4853 414.226L75.8984 413.291L80.0909 410.714H81.2228V423.89Z" fill="url(#paint17_linear_175_1901)" fill-opacity="0.6"/>
<path d="M79.9651 434.257C81.4604 434.257 82.5924 434.888 83.361 436.149C84.1436 437.396 84.5349 439.211 84.5349 441.594C84.5349 443.977 84.1436 445.798 83.361 447.059C82.5924 448.32 81.4604 448.95 79.9651 448.95C78.4838 448.95 77.3518 448.32 76.5692 447.059C75.7866 445.798 75.3953 443.977 75.3953 441.594C75.3953 439.224 75.7866 437.409 76.5692 436.149C77.3518 434.888 78.4838 434.257 79.9651 434.257ZM76.8836 441.594C76.8836 443.284 77.0374 444.607 77.3448 445.563L81.9985 436.356C81.5093 435.705 80.8315 435.38 79.9651 435.38C79.0008 435.38 78.2462 435.892 77.7012 436.918C77.1561 437.929 76.8836 439.488 76.8836 441.594ZM79.9651 447.807C80.9433 447.807 81.705 447.302 82.25 446.29C82.795 445.265 83.0675 443.699 83.0675 441.594C83.0675 439.806 82.8928 438.421 82.5435 437.437L77.8898 446.727C78.3929 447.447 79.0847 447.807 79.9651 447.807Z" fill="url(#paint18_linear_175_1901)" fill-opacity="0.6"/>
<path d="M81.2228 471.392H84.3043V472.494H76.3176V471.392H79.8812V459.713L76.4853 461.728L75.8984 460.793L80.0909 458.216H81.2228V471.392Z" fill="url(#paint19_linear_175_1901)" fill-opacity="0.6"/>
<path d="M79.9651 481.76C81.4604 481.76 82.5924 482.39 83.361 483.651C84.1436 484.898 84.5349 486.713 84.5349 489.096C84.5349 491.479 84.1436 493.301 83.361 494.561C82.5924 495.822 81.4604 496.453 79.9651 496.453C78.4838 496.453 77.3518 495.822 76.5692 494.561C75.7866 493.301 75.3953 491.479 75.3953 489.096C75.3953 486.726 75.7866 484.911 76.5692 483.651C77.3518 482.39 78.4838 481.76 79.9651 481.76ZM76.8836 489.096C76.8836 490.786 77.0374 492.109 77.3448 493.065L81.9985 483.859C81.5093 483.207 80.8315 482.882 79.9651 482.882C79.0008 482.882 78.2462 483.394 77.7012 484.42C77.1561 485.431 76.8836 486.99 76.8836 489.096ZM79.9651 495.31C80.9433 495.31 81.705 494.804 82.25 493.792C82.795 492.767 83.0675 491.202 83.0675 489.096C83.0675 487.308 82.8928 485.923 82.5435 484.939L77.8898 494.229C78.3929 494.949 79.0847 495.31 79.9651 495.31Z" fill="url(#paint20_linear_175_1901)" fill-opacity="0.6"/>
<path d="M79.9651 505.511C81.4604 505.511 82.5924 506.141 83.361 507.402C84.1436 508.649 84.5349 510.464 84.5349 512.847C84.5349 515.23 84.1436 517.052 83.361 518.312C82.5924 519.573 81.4604 520.204 79.9651 520.204C78.4838 520.204 77.3518 519.573 76.5692 518.312C75.7866 517.052 75.3953 515.23 75.3953 512.847C75.3953 510.478 75.7866 508.663 76.5692 507.402C77.3518 506.141 78.4838 505.511 79.9651 505.511ZM76.8836 512.847C76.8836 514.537 77.0374 515.86 77.3448 516.816L81.9985 507.61C81.5093 506.958 80.8315 506.633 79.9651 506.633C79.0008 506.633 78.2462 507.145 77.7012 508.171C77.1561 509.182 76.8836 510.741 76.8836 512.847ZM79.9651 519.061C80.9433 519.061 81.705 518.555 82.25 517.543C82.795 516.518 83.0675 514.953 83.0675 512.847C83.0675 511.059 82.8928 509.674 82.5435 508.69L77.8898 517.98C78.3929 518.7 79.0847 519.061 79.9651 519.061Z" fill="url(#paint21_linear_175_1901)" fill-opacity="0.6"/>
<path d="M81.2228 542.645H84.3043V543.747H76.3176V542.645H79.8812V530.966L76.4853 532.982L75.8984 532.046L80.0909 529.469H81.2228V542.645Z" fill="url(#paint22_linear_175_1901)" fill-opacity="0.6"/>
<path d="M79.9651 553.013C81.4604 553.013 82.5924 553.643 83.361 554.904C84.1436 556.151 84.5349 557.966 84.5349 560.349C84.5349 562.732 84.1436 564.554 83.361 565.815C82.5924 567.075 81.4604 567.706 79.9651 567.706C78.4838 567.706 77.3518 567.075 76.5692 565.815C75.7866 564.554 75.3953 562.732 75.3953 560.349C75.3953 557.98 75.7866 556.165 76.5692 554.904C77.3518 553.643 78.4838 553.013 79.9651 553.013ZM76.8836 560.349C76.8836 562.039 77.0374 563.362 77.3448 564.318L81.9985 555.112C81.5093 554.461 80.8315 554.135 79.9651 554.135C79.0008 554.135 78.2462 554.648 77.7012 555.673C77.1561 556.684 76.8836 558.243 76.8836 560.349ZM79.9651 566.563C80.9433 566.563 81.705 566.057 82.25 565.046C82.795 564.02 83.0675 562.455 83.0675 560.349C83.0675 558.562 82.8928 557.176 82.5435 556.192L77.8898 565.482C78.3929 566.202 79.0847 566.563 79.9651 566.563Z" fill="url(#paint23_linear_175_1901)" fill-opacity="0.6"/>
<path d="M81.2228 590.147H84.3043V591.249H76.3176V590.147H79.8812V578.468L76.4853 580.484L75.8984 579.549L80.0909 576.972H81.2228V590.147Z" fill="url(#paint24_linear_175_1901)" fill-opacity="0.6"/>
<path d="M81.2228 613.899H84.3043V615H76.3176V613.899H79.8812V602.219L76.4853 604.235L75.8984 603.3L80.0909 600.723H81.2228V613.899Z" fill="url(#paint25_linear_175_1901)" fill-opacity="0.6"/>
<path d="M21.5698 339.253C23.0651 339.253 24.1971 339.884 24.9657 341.144C25.7483 342.391 26.1396 344.206 26.1396 346.589C26.1396 348.972 25.7483 350.794 24.9657 352.055C24.1971 353.316 23.0651 353.946 21.5698 353.946C20.0885 353.946 18.9565 353.316 18.1739 352.055C17.3913 350.794 17 348.972 17 346.589C17 344.22 17.3913 342.405 18.1739 341.144C18.9565 339.884 20.0885 339.253 21.5698 339.253ZM18.4883 346.589C18.4883 348.28 18.6421 349.603 18.9495 350.559L23.6032 341.352C23.114 340.701 22.4363 340.375 21.5698 340.375C20.6055 340.375 19.8509 340.888 19.3059 341.913C18.7608 342.925 18.4883 344.483 18.4883 346.589ZM21.5698 352.803C22.5481 352.803 23.3097 352.297 23.8547 351.286C24.3997 350.261 24.6722 348.695 24.6722 346.589C24.6722 344.802 24.4976 343.417 24.1482 342.433L19.4945 351.722C19.9976 352.443 20.6894 352.803 21.5698 352.803Z" fill="url(#paint26_linear_175_1901)" fill-opacity="0.6"/>
<path d="M21.5698 363.004C23.0651 363.004 24.1971 363.635 24.9657 364.895C25.7483 366.142 26.1396 367.957 26.1396 370.34C26.1396 372.723 25.7483 374.545 24.9657 375.806C24.1971 377.067 23.0651 377.697 21.5698 377.697C20.0885 377.697 18.9565 377.067 18.1739 375.806C17.3913 374.545 17 372.723 17 370.34C17 367.971 17.3913 366.156 18.1739 364.895C18.9565 363.635 20.0885 363.004 21.5698 363.004ZM18.4883 370.34C18.4883 372.031 18.6421 373.354 18.9495 374.31L23.6032 365.103C23.114 364.452 22.4363 364.126 21.5698 364.126C20.6055 364.126 19.8509 364.639 19.3059 365.664C18.7608 366.676 18.4883 368.234 18.4883 370.34ZM21.5698 376.554C22.5481 376.554 23.3097 376.049 23.8547 375.037C24.3997 374.012 24.6722 372.446 24.6722 370.34C24.6722 368.553 24.4976 367.168 24.1482 366.184L19.4945 375.474C19.9976 376.194 20.6894 376.554 21.5698 376.554Z" fill="url(#paint27_linear_175_1901)" fill-opacity="0.6"/>
<path d="M22.8276 400.139H25.909V401.24H17.9223V400.139H21.486V388.459L18.09 390.475L17.5031 389.54L21.6956 386.963H22.8276V400.139Z" fill="url(#paint28_linear_175_1901)" fill-opacity="0.6"/>
<path d="M21.5698 410.506C23.0651 410.506 24.1971 411.137 24.9657 412.398C25.7483 413.644 26.1396 415.459 26.1396 417.842C26.1396 420.225 25.7483 422.047 24.9657 423.308C24.1971 424.569 23.0651 425.199 21.5698 425.199C20.0885 425.199 18.9565 424.569 18.1739 423.308C17.3913 422.047 17 420.225 17 417.842C17 415.473 17.3913 413.658 18.1739 412.398C18.9565 411.137 20.0885 410.506 21.5698 410.506ZM18.4883 417.842C18.4883 419.533 18.6421 420.856 18.9495 421.812L23.6032 412.605C23.114 411.954 22.4363 411.629 21.5698 411.629C20.6055 411.629 19.8509 412.141 19.3059 413.166C18.7608 414.178 18.4883 415.737 18.4883 417.842ZM21.5698 424.056C22.5481 424.056 23.3097 423.551 23.8547 422.539C24.3997 421.514 24.6722 419.948 24.6722 417.842C24.6722 416.055 24.4976 414.67 24.1482 413.686L19.4945 422.976C19.9976 423.696 20.6894 424.056 21.5698 424.056Z" fill="url(#paint29_linear_175_1901)" fill-opacity="0.6"/>
<path d="M22.8276 447.641H25.909V448.743H17.9223V447.641H21.486V435.962L18.09 437.977L17.5031 437.042L21.6956 434.465H22.8276V447.641Z" fill="url(#paint30_linear_175_1901)" fill-opacity="0.6"/>
<path d="M22.8276 471.392H25.909V472.494H17.9223V471.392H21.486V459.713L18.09 461.728L17.5031 460.793L21.6956 458.216H22.8276V471.392Z" fill="url(#paint31_linear_175_1901)" fill-opacity="0.6"/>
<path d="M61.7577 305.135H64.8392V306.236H56.8525V305.135H60.4162V293.455L57.0202 295.471L56.4333 294.536L60.6258 291.959H61.7577V305.135Z" fill="url(#paint32_linear_175_1901)" fill-opacity="0.6"/>
<path d="M60.5 315.502C61.9953 315.502 63.1273 316.133 63.8959 317.393C64.6785 318.64 65.0698 320.455 65.0698 322.838C65.0698 325.221 64.6785 327.043 63.8959 328.304C63.1273 329.565 61.9953 330.195 60.5 330.195C59.0187 330.195 57.8867 329.565 57.1041 328.304C56.3215 327.043 55.9302 325.221 55.9302 322.838C55.9302 320.469 56.3215 318.654 57.1041 317.393C57.8867 316.133 59.0187 315.502 60.5 315.502ZM57.4185 322.838C57.4185 324.529 57.5723 325.852 57.8797 326.808L62.5334 317.601C62.0442 316.95 61.3664 316.624 60.5 316.624C59.5357 316.624 58.7811 317.137 58.2361 318.162C57.691 319.174 57.4185 320.732 57.4185 322.838ZM60.5 329.052C61.4782 329.052 62.2399 328.546 62.7849 327.535C63.3299 326.51 63.6024 324.944 63.6024 322.838C63.6024 321.051 63.4277 319.665 63.0784 318.682L58.4247 327.971C58.9278 328.692 59.6196 329.052 60.5 329.052Z" fill="url(#paint33_linear_175_1901)" fill-opacity="0.6"/>
<path d="M61.7577 352.637H64.8392V353.738H56.8525V352.637H60.4162V340.957L57.0202 342.973L56.4333 342.038L60.6258 339.461H61.7577V352.637Z" fill="url(#paint34_linear_175_1901)" fill-opacity="0.6"/>
<path d="M61.7577 376.388H64.8392V377.489H56.8525V376.388H60.4162V364.708L57.0202 366.724L56.4333 365.789L60.6258 363.212H61.7577V376.388Z" fill="url(#paint35_linear_175_1901)" fill-opacity="0.6"/>
<path d="M60.5 386.755C61.9953 386.755 63.1273 387.386 63.8959 388.646C64.6785 389.893 65.0698 391.708 65.0698 394.091C65.0698 396.474 64.6785 398.296 63.8959 399.557C63.1273 400.818 61.9953 401.448 60.5 401.448C59.0187 401.448 57.8867 400.818 57.1041 399.557C56.3215 398.296 55.9302 396.474 55.9302 394.091C55.9302 391.722 56.3215 389.907 57.1041 388.646C57.8867 387.386 59.0187 386.755 60.5 386.755ZM57.4185 394.091C57.4185 395.782 57.5723 397.105 57.8797 398.061L62.5334 388.854C62.0442 388.203 61.3664 387.878 60.5 387.878C59.5357 387.878 58.7811 388.39 58.2361 389.415C57.691 390.427 57.4185 391.985 57.4185 394.091ZM60.5 400.305C61.4782 400.305 62.2399 399.8 62.7849 398.788C63.3299 397.763 63.6024 396.197 63.6024 394.091C63.6024 392.304 63.4277 390.919 63.0784 389.935L58.4247 399.225C58.9278 399.945 59.6196 400.305 60.5 400.305Z" fill="url(#paint36_linear_175_1901)" fill-opacity="0.6"/>
<path d="M61.7577 423.89H64.8392V424.992H56.8525V423.89H60.4162V412.21L57.0202 414.226L56.4333 413.291L60.6258 410.714H61.7577V423.89Z" fill="url(#paint37_linear_175_1901)" fill-opacity="0.6"/>
<path d="M61.7577 447.641H64.8392V448.743H56.8525V447.641H60.4162V435.962L57.0202 437.977L56.4333 437.042L60.6258 434.465H61.7577V447.641Z" fill="url(#paint38_linear_175_1901)" fill-opacity="0.6"/>
<path d="M60.5 458.008C61.9953 458.008 63.1273 458.639 63.8959 459.9C64.6785 461.147 65.0698 462.962 65.0698 465.345C65.0698 467.728 64.6785 469.549 63.8959 470.81C63.1273 472.071 61.9953 472.701 60.5 472.701C59.0187 472.701 57.8867 472.071 57.1041 470.81C56.3215 469.549 55.9302 467.728 55.9302 465.345C55.9302 462.975 56.3215 461.16 57.1041 459.9C57.8867 458.639 59.0187 458.008 60.5 458.008ZM57.4185 465.345C57.4185 467.035 57.5723 468.358 57.8797 469.314L62.5334 460.107C62.0442 459.456 61.3664 459.131 60.5 459.131C59.5357 459.131 58.7811 459.643 58.2361 460.669C57.691 461.68 57.4185 463.239 57.4185 465.345ZM60.5 471.558C61.4782 471.558 62.2399 471.053 62.7849 470.041C63.3299 469.016 63.6024 467.451 63.6024 465.345C63.6024 463.557 63.4277 462.172 63.0784 461.188L58.4247 470.478C58.9278 471.198 59.6196 471.558 60.5 471.558Z" fill="url(#paint39_linear_175_1901)" fill-opacity="0.6"/>
<path d="M61.7577 495.143H64.8392V496.245H56.8525V495.143H60.4162V483.464L57.0202 485.48L56.4333 484.544L60.6258 481.967H61.7577V495.143Z" fill="url(#paint40_linear_175_1901)" fill-opacity="0.6"/>
<path d="M60.5 505.511C61.9953 505.511 63.1273 506.141 63.8959 507.402C64.6785 508.649 65.0698 510.464 65.0698 512.847C65.0698 515.23 64.6785 517.052 63.8959 518.312C63.1273 519.573 61.9953 520.204 60.5 520.204C59.0187 520.204 57.8867 519.573 57.1041 518.312C56.3215 517.052 55.9302 515.23 55.9302 512.847C55.9302 510.478 56.3215 508.663 57.1041 507.402C57.8867 506.141 59.0187 505.511 60.5 505.511ZM57.4185 512.847C57.4185 514.537 57.5723 515.86 57.8797 516.816L62.5334 507.61C62.0442 506.958 61.3664 506.633 60.5 506.633C59.5357 506.633 58.7811 507.145 58.2361 508.171C57.691 509.182 57.4185 510.741 57.4185 512.847ZM60.5 519.061C61.4782 519.061 62.2399 518.555 62.7849 517.543C63.3299 516.518 63.6024 514.953 63.6024 512.847C63.6024 511.059 63.4277 509.674 63.0784 508.69L58.4247 517.98C58.9278 518.7 59.6196 519.061 60.5 519.061Z" fill="url(#paint41_linear_175_1901)" fill-opacity="0.6"/>
<path d="M99.4302 291.751C100.926 291.751 102.057 292.381 102.826 293.642C103.609 294.889 104 296.704 104 299.087C104 301.47 103.609 303.292 102.826 304.553C102.057 305.814 100.926 306.444 99.4302 306.444C97.9489 306.444 96.8169 305.814 96.0343 304.553C95.2517 303.292 94.8604 301.47 94.8604 299.087C94.8604 296.718 95.2517 294.903 96.0343 293.642C96.8169 292.381 97.9489 291.751 99.4302 291.751ZM96.3487 299.087C96.3487 300.777 96.5024 302.101 96.8099 303.057L101.464 293.85C100.974 293.199 100.297 292.873 99.4302 292.873C98.4659 292.873 97.7113 293.386 97.1663 294.411C96.6212 295.423 96.3487 296.981 96.3487 299.087ZM99.4302 305.301C100.408 305.301 101.17 304.795 101.715 303.784C102.26 302.759 102.533 301.193 102.533 299.087C102.533 297.3 102.358 295.914 102.009 294.931L97.3549 304.22C97.858 304.941 98.5498 305.301 99.4302 305.301Z" fill="url(#paint42_linear_175_1901)" fill-opacity="0.6"/>
<path d="M100.688 328.886H103.769V329.987H95.7827V328.886H99.3463V317.206L95.9504 319.222L95.3635 318.287L99.556 315.71H100.688V328.886Z" fill="url(#paint43_linear_175_1901)" fill-opacity="0.6"/>
<path d="M100.688 352.637H103.769V353.738H95.7827V352.637H99.3463V340.957L95.9504 342.973L95.3635 342.038L99.556 339.461H100.688V352.637Z" fill="url(#paint44_linear_175_1901)" fill-opacity="0.6"/>
<path d="M99.4302 363.004C100.926 363.004 102.057 363.635 102.826 364.895C103.609 366.142 104 367.957 104 370.34C104 372.723 103.609 374.545 102.826 375.806C102.057 377.067 100.926 377.697 99.4302 377.697C97.9489 377.697 96.8169 377.067 96.0343 375.806C95.2517 374.545 94.8604 372.723 94.8604 370.34C94.8604 367.971 95.2517 366.156 96.0343 364.895C96.8169 363.635 97.9489 363.004 99.4302 363.004ZM96.3487 370.34C96.3487 372.031 96.5024 373.354 96.8099 374.31L101.464 365.103C100.974 364.452 100.297 364.126 99.4302 364.126C98.4659 364.126 97.7113 364.639 97.1663 365.664C96.6212 366.676 96.3487 368.234 96.3487 370.34ZM99.4302 376.554C100.408 376.554 101.17 376.049 101.715 375.037C102.26 374.012 102.533 372.446 102.533 370.34C102.533 368.553 102.358 367.168 102.009 366.184L97.3549 375.474C97.858 376.194 98.5498 376.554 99.4302 376.554Z" fill="url(#paint45_linear_175_1901)" fill-opacity="0.6"/>
<path d="M99.4302 386.755C100.926 386.755 102.057 387.386 102.826 388.646C103.609 389.893 104 391.708 104 394.091C104 396.474 103.609 398.296 102.826 399.557C102.057 400.818 100.926 401.448 99.4302 401.448C97.9489 401.448 96.8169 400.818 96.0343 399.557C95.2517 398.296 94.8604 396.474 94.8604 394.091C94.8604 391.722 95.2517 389.907 96.0343 388.646C96.8169 387.386 97.9489 386.755 99.4302 386.755ZM96.3487 394.091C96.3487 395.782 96.5024 397.105 96.8099 398.061L101.464 388.854C100.974 388.203 100.297 387.878 99.4302 387.878C98.4659 387.878 97.7113 388.39 97.1663 389.415C96.6212 390.427 96.3487 391.985 96.3487 394.091ZM99.4302 400.305C100.408 400.305 101.17 399.8 101.715 398.788C102.26 397.763 102.533 396.197 102.533 394.091C102.533 392.304 102.358 390.919 102.009 389.935L97.3549 399.225C97.858 399.945 98.5498 400.305 99.4302 400.305Z" fill="url(#paint46_linear_175_1901)" fill-opacity="0.6"/>
<g opacity="0.6">
<path d="M927.93 -32C929.356 -32 930.436 -31.395 931.17 -30.1851C931.916 -28.9885 932.29 -27.2468 932.29 -24.9599C932.29 -22.673 931.916 -20.9246 931.17 -19.7147C930.436 -18.5048 929.356 -17.8998 927.93 -17.8998C926.517 -17.8998 925.437 -18.5048 924.69 -19.7147C923.943 -20.9246 923.57 -22.673 923.57 -24.9599C923.57 -27.2335 923.943 -28.9752 924.69 -30.1851C925.437 -31.395 926.517 -32 927.93 -32ZM924.99 -24.9599C924.99 -23.3378 925.137 -22.068 925.43 -21.1506L929.87 -29.9857C929.403 -30.6106 928.756 -30.923 927.93 -30.923C927.01 -30.923 926.29 -30.4311 925.77 -29.4472C925.25 -28.4766 924.99 -26.9808 924.99 -24.9599ZM927.93 -18.9967C928.863 -18.9967 929.59 -19.482 930.11 -20.4526C930.63 -21.4365 930.89 -22.9389 930.89 -24.9599C930.89 -26.675 930.723 -28.0046 930.39 -28.9486L925.95 -20.0338C926.43 -19.3424 927.09 -18.9967 927.93 -18.9967Z" fill="url(#paint47_linear_175_1901)"/>
<path d="M929.13 3.63655H932.07V4.69356H924.45V3.63655H927.85V-7.57181L924.61 -5.63727L924.05 -6.53474L928.05 -9.00776H929.13V3.63655Z" fill="url(#paint48_linear_175_1901)"/>
<path d="M927.93 13.5856C929.356 13.5856 930.436 14.1906 931.17 15.4005C931.916 16.5971 932.29 18.3389 932.29 20.6257C932.29 22.9126 931.916 24.661 931.17 25.8709C930.436 27.0808 929.356 27.6858 927.93 27.6858C926.517 27.6858 925.437 27.0808 924.69 25.8709C923.943 24.661 923.57 22.9126 923.57 20.6257C923.57 18.3521 923.943 16.6104 924.69 15.4005C925.437 14.1906 926.517 13.5856 927.93 13.5856ZM924.99 20.6257C924.99 22.2478 925.137 23.5176 925.43 24.435L929.87 15.5999C929.403 14.975 928.756 14.6626 927.93 14.6626C927.01 14.6626 926.29 15.1545 925.77 16.1384C925.25 17.109 924.99 18.6048 924.99 20.6257ZM927.93 26.5889C928.863 26.5889 929.59 26.1036 930.11 25.133C930.63 24.1491 930.89 22.6467 930.89 20.6257C930.89 18.9106 930.723 17.581 930.39 16.637L925.95 25.5518C926.43 26.2432 927.09 26.5889 927.93 26.5889Z" fill="url(#paint49_linear_175_1901)"/>
<path d="M929.13 49.2221H932.07V50.2792H924.45V49.2221H927.85V38.0138L924.61 39.9483L924.05 39.0509L928.05 36.5778H929.13V49.2221Z" fill="url(#paint50_linear_175_1901)"/>
<path d="M929.13 72.015H932.07V73.072H924.45V72.015H927.85V60.8066L924.61 62.7411L924.05 61.8437L928.05 59.3706H929.13V72.015Z" fill="url(#paint51_linear_175_1901)"/>
<path d="M927.93 81.964C929.356 81.964 930.436 82.569 931.17 83.7789C931.916 84.9755 932.29 86.7173 932.29 89.0041C932.29 91.291 931.916 93.0394 931.17 94.2493C930.436 95.4593 929.356 96.0642 927.93 96.0642C926.517 96.0642 925.437 95.4593 924.69 94.2493C923.943 93.0394 923.57 91.291 923.57 89.0041C923.57 86.7306 923.943 84.9888 924.69 83.7789C925.437 82.569 926.517 81.964 927.93 81.964ZM924.99 89.0041C924.99 90.6262 925.137 91.896 925.43 92.8134L929.87 83.9783C929.403 83.3534 928.756 83.041 927.93 83.041C927.01 83.041 926.29 83.5329 925.77 84.5168C925.25 85.4874 924.99 86.9832 924.99 89.0041ZM927.93 94.9673C928.863 94.9673 929.59 94.482 930.11 93.5114C930.63 92.5275 930.89 91.0251 930.89 89.0041C930.89 87.289 930.723 85.9594 930.39 85.0154L925.95 93.9302C926.43 94.6216 927.09 94.9673 927.93 94.9673Z" fill="url(#paint52_linear_175_1901)"/>
<path d="M929.13 117.601H932.07V118.658H924.45V117.601H927.85V106.392L924.61 108.327L924.05 107.429L928.05 104.956H929.13V117.601Z" fill="url(#paint53_linear_175_1901)"/>
<path d="M927.93 127.55C929.356 127.55 930.436 128.155 931.17 129.365C931.916 130.561 932.29 132.303 932.29 134.59C932.29 136.877 931.916 138.625 931.17 139.835C930.436 141.045 929.356 141.65 927.93 141.65C926.517 141.65 925.437 141.045 924.69 139.835C923.943 138.625 923.57 136.877 923.57 134.59C923.57 132.316 923.943 130.574 924.69 129.365C925.437 128.155 926.517 127.55 927.93 127.55ZM924.99 134.59C924.99 136.212 925.137 137.482 925.43 138.399L929.87 129.564C929.403 128.939 928.756 128.627 927.93 128.627C927.01 128.627 926.29 129.119 925.77 130.102C925.25 131.073 924.99 132.569 924.99 134.59ZM927.93 140.553C928.863 140.553 929.59 140.068 930.11 139.097C930.63 138.113 930.89 136.611 930.89 134.59C930.89 132.875 930.723 131.545 930.39 130.601L925.95 139.516C926.43 140.207 927.09 140.553 927.93 140.553Z" fill="url(#paint54_linear_175_1901)"/>
<path d="M927.93 150.342C929.356 150.342 930.436 150.947 931.17 152.157C931.916 153.354 932.29 155.096 932.29 157.383C932.29 159.669 931.916 161.418 931.17 162.628C930.436 163.838 929.356 164.443 927.93 164.443C926.517 164.443 925.437 163.838 924.69 162.628C923.943 161.418 923.57 159.669 923.57 157.383C923.57 155.109 923.943 153.367 924.69 152.157C925.437 150.947 926.517 150.342 927.93 150.342ZM924.99 157.383C924.99 159.005 925.137 160.274 925.43 161.192L929.87 152.357C929.403 151.732 928.756 151.419 927.93 151.419C927.01 151.419 926.29 151.911 925.77 152.895C925.25 153.866 924.99 155.362 924.99 157.383ZM927.93 163.346C928.863 163.346 929.59 162.86 930.11 161.89C930.63 160.906 930.89 159.404 930.89 157.383C930.89 155.667 930.723 154.338 930.39 153.394L925.95 162.309C926.43 163 927.09 163.346 927.93 163.346Z" fill="url(#paint55_linear_175_1901)"/>
<path d="M929.13 185.979H932.07V187.036H924.45V185.979H927.85V174.771L924.61 176.705L924.05 175.808L928.05 173.335H929.13V185.979Z" fill="url(#paint56_linear_175_1901)"/>
<path d="M927.93 195.928C929.356 195.928 930.436 196.533 931.17 197.743C931.916 198.94 932.29 200.681 932.29 202.968C932.29 205.255 931.916 207.003 931.17 208.213C930.436 209.423 929.356 210.028 927.93 210.028C926.517 210.028 925.437 209.423 924.69 208.213C923.943 207.003 923.57 205.255 923.57 202.968C923.57 200.695 923.943 198.953 924.69 197.743C925.437 196.533 926.517 195.928 927.93 195.928ZM924.99 202.968C924.99 204.59 925.137 205.86 925.43 206.777L929.87 197.942C929.403 197.317 928.756 197.005 927.93 197.005C927.01 197.005 926.29 197.497 925.77 198.481C925.25 199.451 924.99 200.947 924.99 202.968ZM927.93 208.931C928.863 208.931 929.59 208.446 930.11 207.475C930.63 206.492 930.89 204.989 930.89 202.968C930.89 201.253 930.723 199.923 930.39 198.979L925.95 207.894C926.43 208.586 927.09 208.931 927.93 208.931Z" fill="url(#paint57_linear_175_1901)"/>
<path d="M929.13 231.565H932.07V232.622H924.45V231.565H927.85V220.356L924.61 222.291L924.05 221.393L928.05 218.92H929.13V231.565Z" fill="url(#paint58_linear_175_1901)"/>
<path d="M929.13 254.357H932.07V255.414H924.45V254.357H927.85V243.149L924.61 245.084L924.05 244.186L928.05 241.713H929.13V254.357Z" fill="url(#paint59_linear_175_1901)"/>
<path d="M965.07 13.5856C966.497 13.5856 967.577 14.1906 968.31 15.4005C969.057 16.5971 969.43 18.3389 969.43 20.6257C969.43 22.9126 969.057 24.661 968.31 25.8709C967.577 27.0808 966.497 27.6858 965.07 27.6858C963.657 27.6858 962.577 27.0808 961.83 25.8709C961.084 24.661 960.71 22.9126 960.71 20.6257C960.71 18.3521 961.084 16.6104 961.83 15.4005C962.577 14.1906 963.657 13.5856 965.07 13.5856ZM962.13 20.6257C962.13 22.2478 962.277 23.5176 962.57 24.435L967.01 15.5999C966.543 14.975 965.897 14.6626 965.07 14.6626C964.15 14.6626 963.43 15.1545 962.91 16.1384C962.39 17.109 962.13 18.6048 962.13 20.6257ZM965.07 26.5889C966.003 26.5889 966.73 26.1036 967.25 25.133C967.77 24.1491 968.03 22.6467 968.03 20.6257C968.03 18.9106 967.863 17.581 967.53 16.637L963.09 25.5518C963.57 26.2432 964.23 26.5889 965.07 26.5889Z" fill="url(#paint60_linear_175_1901)"/>
<path d="M966.27 49.2221H969.21V50.2792H961.59V49.2221H964.99V38.0138L961.75 39.9483L961.19 39.0509L965.19 36.5778H966.27V49.2221Z" fill="url(#paint61_linear_175_1901)"/>
<path d="M965.07 59.1712C966.497 59.1712 967.577 59.7762 968.31 60.9861C969.057 62.1827 969.43 63.9245 969.43 66.2113C969.43 68.4982 969.057 70.2466 968.31 71.4565C967.577 72.6665 966.497 73.2714 965.07 73.2714C963.657 73.2714 962.577 72.6665 961.83 71.4565C961.084 70.2466 960.71 68.4982 960.71 66.2113C960.71 63.9378 961.084 62.196 961.83 60.9861C962.577 59.7762 963.657 59.1712 965.07 59.1712ZM962.13 66.2113C962.13 67.8334 962.277 69.1032 962.57 70.0206L967.01 61.1855C966.543 60.5606 965.897 60.2482 965.07 60.2482C964.15 60.2482 963.43 60.7401 962.91 61.724C962.39 62.6946 962.13 64.1904 962.13 66.2113ZM965.07 72.1745C966.003 72.1745 966.73 71.6892 967.25 70.7186C967.77 69.7347 968.03 68.2323 968.03 66.2113C968.03 64.4962 967.863 63.1666 967.53 62.2226L963.09 71.1374C963.57 71.8288 964.23 72.1745 965.07 72.1745Z" fill="url(#paint62_linear_175_1901)"/>
<path d="M965.07 81.964C966.497 81.964 967.577 82.569 968.31 83.7789C969.057 84.9755 969.43 86.7173 969.43 89.0041C969.43 91.291 969.057 93.0394 968.31 94.2493C967.577 95.4593 966.497 96.0642 965.07 96.0642C963.657 96.0642 962.577 95.4593 961.83 94.2493C961.084 93.0394 960.71 91.291 960.71 89.0041C960.71 86.7306 961.084 84.9888 961.83 83.7789C962.577 82.569 963.657 81.964 965.07 81.964ZM962.13 89.0041C962.13 90.6262 962.277 91.896 962.57 92.8134L967.01 83.9783C966.543 83.3534 965.897 83.041 965.07 83.041C964.15 83.041 963.43 83.5329 962.91 84.5168C962.39 85.4874 962.13 86.9832 962.13 89.0041ZM965.07 94.9673C966.003 94.9673 966.73 94.482 967.25 93.5114C967.77 92.5275 968.03 91.0251 968.03 89.0041C968.03 87.289 967.863 85.9594 967.53 85.0154L963.09 93.9302C963.57 94.6216 964.23 94.9673 965.07 94.9673Z" fill="url(#paint63_linear_175_1901)"/>
<path d="M966.27 117.601H969.21V118.658H961.59V117.601H964.99V106.392L961.75 108.327L961.19 107.429L965.19 104.956H966.27V117.601Z" fill="url(#paint64_linear_175_1901)"/>
<path d="M965.07 127.55C966.497 127.55 967.577 128.155 968.31 129.365C969.057 130.561 969.43 132.303 969.43 134.59C969.43 136.877 969.057 138.625 968.31 139.835C967.577 141.045 966.497 141.65 965.07 141.65C963.657 141.65 962.577 141.045 961.83 139.835C961.084 138.625 960.71 136.877 960.71 134.59C960.71 132.316 961.084 130.574 961.83 129.365C962.577 128.155 963.657 127.55 965.07 127.55ZM962.13 134.59C962.13 136.212 962.277 137.482 962.57 138.399L967.01 129.564C966.543 128.939 965.897 128.627 965.07 128.627C964.15 128.627 963.43 129.119 962.91 130.102C962.39 131.073 962.13 132.569 962.13 134.59ZM965.07 140.553C966.003 140.553 966.73 140.068 967.25 139.097C967.77 138.113 968.03 136.611 968.03 134.59C968.03 132.875 967.863 131.545 967.53 130.601L963.09 139.516C963.57 140.207 964.23 140.553 965.07 140.553Z" fill="url(#paint65_linear_175_1901)"/>
<path d="M966.27 163.186H969.21V164.243H961.59V163.186H964.99V151.978L961.75 153.912L961.19 153.015L965.19 150.542H966.27V163.186Z" fill="url(#paint66_linear_175_1901)"/>
<path d="M965.07 173.135C966.497 173.135 967.577 173.74 968.31 174.95C969.057 176.147 969.43 177.888 969.43 180.175C969.43 182.462 969.057 184.211 968.31 185.421C967.577 186.63 966.497 187.235 965.07 187.235C963.657 187.235 962.577 186.63 961.83 185.421C961.084 184.211 960.71 182.462 960.71 180.175C960.71 177.902 961.084 176.16 961.83 174.95C962.577 173.74 963.657 173.135 965.07 173.135ZM962.13 180.175C962.13 181.797 962.277 183.067 962.57 183.985L967.01 175.15C966.543 174.525 965.897 174.212 965.07 174.212C964.15 174.212 963.43 174.704 962.91 175.688C962.39 176.659 962.13 178.154 962.13 180.175ZM965.07 186.139C966.003 186.139 966.73 185.653 967.25 184.683C967.77 183.699 968.03 182.196 968.03 180.175C968.03 178.46 967.863 177.131 967.53 176.187L963.09 185.101C963.57 185.793 964.23 186.139 965.07 186.139Z" fill="url(#paint67_linear_175_1901)"/>
<path d="M965.07 195.928C966.497 195.928 967.577 196.533 968.31 197.743C969.057 198.94 969.43 200.681 969.43 202.968C969.43 205.255 969.057 207.003 968.31 208.213C967.577 209.423 966.497 210.028 965.07 210.028C963.657 210.028 962.577 209.423 961.83 208.213C961.084 207.003 960.71 205.255 960.71 202.968C960.71 200.695 961.084 198.953 961.83 197.743C962.577 196.533 963.657 195.928 965.07 195.928ZM962.13 202.968C962.13 204.59 962.277 205.86 962.57 206.777L967.01 197.942C966.543 197.317 965.897 197.005 965.07 197.005C964.15 197.005 963.43 197.497 962.91 198.481C962.39 199.451 962.13 200.947 962.13 202.968ZM965.07 208.931C966.003 208.931 966.73 208.446 967.25 207.475C967.77 206.492 968.03 204.989 968.03 202.968C968.03 201.253 967.863 199.923 967.53 198.979L963.09 207.894C963.57 208.586 964.23 208.931 965.07 208.931Z" fill="url(#paint68_linear_175_1901)"/>
<path d="M966.27 231.565H969.21V232.622H961.59V231.565H964.99V220.356L961.75 222.291L961.19 221.393L965.19 218.92H966.27V231.565Z" fill="url(#paint69_linear_175_1901)"/>
<path d="M965.07 241.514C966.497 241.514 967.577 242.119 968.31 243.329C969.057 244.525 969.43 246.267 969.43 248.554C969.43 250.841 969.057 252.589 968.31 253.799C967.577 255.009 966.497 255.614 965.07 255.614C963.657 255.614 962.577 255.009 961.83 253.799C961.084 252.589 960.71 250.841 960.71 248.554C960.71 246.28 961.084 244.538 961.83 243.329C962.577 242.119 963.657 241.514 965.07 241.514ZM962.13 248.554C962.13 250.176 962.277 251.446 962.57 252.363L967.01 243.528C966.543 242.903 965.897 242.591 965.07 242.591C964.15 242.591 963.43 243.083 962.91 244.066C962.39 245.037 962.13 246.533 962.13 248.554ZM965.07 254.517C966.003 254.517 966.73 254.032 967.25 253.061C967.77 252.077 968.03 250.575 968.03 248.554C968.03 246.839 967.863 245.509 967.53 244.565L963.09 253.48C963.57 254.171 964.23 254.517 965.07 254.517Z" fill="url(#paint70_linear_175_1901)"/>
<path d="M966.27 277.15H969.21V278.207H961.59V277.15H964.99V265.942L961.75 267.876L961.19 266.979L965.19 264.506H966.27V277.15Z" fill="url(#paint71_linear_175_1901)"/>
<path d="M966.27 299.943H969.21V301H961.59V299.943H964.99V288.735L961.75 290.669L961.19 289.772L965.19 287.299H966.27V299.943Z" fill="url(#paint72_linear_175_1901)"/>
<path d="M909.36 36.3784C910.786 36.3784 911.866 36.9834 912.599 38.1933C913.346 39.3899 913.719 41.1317 913.719 43.4185C913.719 45.7054 913.346 47.4538 912.599 48.6637C911.866 49.8736 910.786 50.4786 909.36 50.4786C907.946 50.4786 906.867 49.8736 906.12 48.6637C905.373 47.4538 905 45.7054 905 43.4185C905 41.145 905.373 39.4032 906.12 38.1933C906.867 36.9834 907.946 36.3784 909.36 36.3784ZM906.42 43.4185C906.42 45.0406 906.567 46.3104 906.86 47.2278L911.3 38.3927C910.833 37.7678 910.186 37.4554 909.36 37.4554C908.44 37.4554 907.72 37.9473 907.2 38.9312C906.68 39.9018 906.42 41.3976 906.42 43.4185ZM909.36 49.3817C910.293 49.3817 911.02 48.8964 911.54 47.9258C912.06 46.9419 912.319 45.4395 912.319 43.4185C912.319 41.7034 912.153 40.3738 911.82 39.4298L907.38 48.3446C907.86 49.036 908.52 49.3817 909.36 49.3817Z" fill="url(#paint73_linear_175_1901)"/>
<path d="M909.36 59.1712C910.786 59.1712 911.866 59.7762 912.599 60.9861C913.346 62.1827 913.719 63.9245 913.719 66.2113C913.719 68.4982 913.346 70.2466 912.599 71.4565C911.866 72.6665 910.786 73.2714 909.36 73.2714C907.946 73.2714 906.867 72.6665 906.12 71.4565C905.373 70.2466 905 68.4982 905 66.2113C905 63.9378 905.373 62.196 906.12 60.9861C906.867 59.7762 907.946 59.1712 909.36 59.1712ZM906.42 66.2113C906.42 67.8334 906.567 69.1032 906.86 70.0206L911.3 61.1855C910.833 60.5606 910.186 60.2482 909.36 60.2482C908.44 60.2482 907.72 60.7401 907.2 61.724C906.68 62.6946 906.42 64.1904 906.42 66.2113ZM909.36 72.1745C910.293 72.1745 911.02 71.6892 911.54 70.7186C912.06 69.7347 912.319 68.2323 912.319 66.2113C912.319 64.4962 912.153 63.1666 911.82 62.2226L907.38 71.1374C907.86 71.8288 908.52 72.1745 909.36 72.1745Z" fill="url(#paint74_linear_175_1901)"/>
<path d="M910.56 94.8078H913.499V95.8648H905.88V94.8078H909.28V83.5994L906.04 85.5339L905.48 84.6365L909.48 82.1635H910.56V94.8078Z" fill="url(#paint75_linear_175_1901)"/>
<path d="M909.36 104.757C910.786 104.757 911.866 105.362 912.599 106.572C913.346 107.768 913.719 109.51 913.719 111.797C913.719 114.084 913.346 115.832 912.599 117.042C911.866 118.252 910.786 118.857 909.36 118.857C907.946 118.857 906.867 118.252 906.12 117.042C905.373 115.832 905 114.084 905 111.797C905 109.523 905.373 107.782 906.12 106.572C906.867 105.362 907.946 104.757 909.36 104.757ZM906.42 111.797C906.42 113.419 906.567 114.689 906.86 115.606L911.3 106.771C910.833 106.146 910.186 105.834 909.36 105.834C908.44 105.834 907.72 106.326 907.2 107.31C906.68 108.28 906.42 109.776 906.42 111.797ZM909.36 117.76C910.293 117.76 911.02 117.275 911.54 116.304C912.06 115.32 912.319 113.818 912.319 111.797C912.319 110.082 912.153 108.752 911.82 107.808L907.38 116.723C907.86 117.414 908.52 117.76 909.36 117.76Z" fill="url(#paint76_linear_175_1901)"/>
<path d="M910.56 140.393H913.499V141.45H905.88V140.393H909.28V129.185L906.04 131.12L905.48 130.222L909.48 127.749H910.56V140.393Z" fill="url(#paint77_linear_175_1901)"/>
<path d="M910.56 163.186H913.499V164.243H905.88V163.186H909.28V151.978L906.04 153.912L905.48 153.015L909.48 150.542H910.56V163.186Z" fill="url(#paint78_linear_175_1901)"/>
<path d="M947.7 3.63655H950.64V4.69356H943.02V3.63655H946.42V-7.57181L943.18 -5.63727L942.62 -6.53474L946.62 -9.00776H947.7V3.63655Z" fill="url(#paint79_linear_175_1901)"/>
<path d="M946.5 13.5856C947.927 13.5856 949.006 14.1906 949.74 15.4005C950.486 16.5971 950.86 18.3389 950.86 20.6257C950.86 22.9126 950.486 24.661 949.74 25.8709C949.006 27.0808 947.927 27.6858 946.5 27.6858C945.087 27.6858 944.007 27.0808 943.26 25.8709C942.514 24.661 942.14 22.9126 942.14 20.6257C942.14 18.3521 942.514 16.6104 943.26 15.4005C944.007 14.1906 945.087 13.5856 946.5 13.5856ZM943.56 20.6257C943.56 22.2478 943.707 23.5176 944 24.435L948.44 15.5999C947.973 14.975 947.327 14.6626 946.5 14.6626C945.58 14.6626 944.86 15.1545 944.34 16.1384C943.82 17.109 943.56 18.6048 943.56 20.6257ZM946.5 26.5889C947.433 26.5889 948.16 26.1036 948.68 25.133C949.2 24.1491 949.46 22.6467 949.46 20.6257C949.46 18.9106 949.293 17.581 948.96 16.637L944.52 25.5518C945 26.2432 945.66 26.5889 946.5 26.5889Z" fill="url(#paint80_linear_175_1901)"/>
<path d="M947.7 49.2221H950.64V50.2792H943.02V49.2221H946.42V38.0138L943.18 39.9483L942.62 39.0509L946.62 36.5778H947.7V49.2221Z" fill="url(#paint81_linear_175_1901)"/>
<path d="M947.7 72.015H950.64V73.072H943.02V72.015H946.42V60.8066L943.18 62.7411L942.62 61.8437L946.62 59.3706H947.7V72.015Z" fill="url(#paint82_linear_175_1901)"/>
<path d="M946.5 81.964C947.927 81.964 949.006 82.569 949.74 83.7789C950.486 84.9755 950.86 86.7173 950.86 89.0041C950.86 91.291 950.486 93.0394 949.74 94.2493C949.006 95.4593 947.927 96.0642 946.5 96.0642C945.087 96.0642 944.007 95.4593 943.26 94.2493C942.514 93.0394 942.14 91.291 942.14 89.0041C942.14 86.7306 942.514 84.9888 943.26 83.7789C944.007 82.569 945.087 81.964 946.5 81.964ZM943.56 89.0041C943.56 90.6262 943.707 91.896 944 92.8134L948.44 83.9783C947.973 83.3534 947.327 83.041 946.5 83.041C945.58 83.041 944.86 83.5329 944.34 84.5168C943.82 85.4874 943.56 86.9832 943.56 89.0041ZM946.5 94.9673C947.433 94.9673 948.16 94.482 948.68 93.5114C949.2 92.5275 949.46 91.0251 949.46 89.0041C949.46 87.289 949.293 85.9594 948.96 85.0154L944.52 93.9302C945 94.6216 945.66 94.9673 946.5 94.9673Z" fill="url(#paint83_linear_175_1901)"/>
<path d="M947.7 117.601H950.64V118.658H943.02V117.601H946.42V106.392L943.18 108.327L942.62 107.429L946.62 104.956H947.7V117.601Z" fill="url(#paint84_linear_175_1901)"/>
<path d="M947.7 140.393H950.64V141.45H943.02V140.393H946.42V129.185L943.18 131.12L942.62 130.222L946.62 127.749H947.7V140.393Z" fill="url(#paint85_linear_175_1901)"/>
<path d="M946.5 150.342C947.927 150.342 949.006 150.947 949.74 152.157C950.486 153.354 950.86 155.096 950.86 157.383C950.86 159.669 950.486 161.418 949.74 162.628C949.006 163.838 947.927 164.443 946.5 164.443C945.087 164.443 944.007 163.838 943.26 162.628C942.514 161.418 942.14 159.669 942.14 157.383C942.14 155.109 942.514 153.367 943.26 152.157C944.007 150.947 945.087 150.342 946.5 150.342ZM943.56 157.383C943.56 159.005 943.707 160.274 944 161.192L948.44 152.357C947.973 151.732 947.327 151.419 946.5 151.419C945.58 151.419 944.86 151.911 944.34 152.895C943.82 153.866 943.56 155.362 943.56 157.383ZM946.5 163.346C947.433 163.346 948.16 162.86 948.68 161.89C949.2 160.906 949.46 159.404 949.46 157.383C949.46 155.667 949.293 154.338 948.96 153.394L944.52 162.309C945 163 945.66 163.346 946.5 163.346Z" fill="url(#paint86_linear_175_1901)"/>
<path d="M947.7 185.979H950.64V187.036H943.02V185.979H946.42V174.771L943.18 176.705L942.62 175.808L946.62 173.335H947.7V185.979Z" fill="url(#paint87_linear_175_1901)"/>
<path d="M946.5 195.928C947.927 195.928 949.006 196.533 949.74 197.743C950.486 198.94 950.86 200.681 950.86 202.968C950.86 205.255 950.486 207.003 949.74 208.213C949.006 209.423 947.927 210.028 946.5 210.028C945.087 210.028 944.007 209.423 943.26 208.213C942.514 207.003 942.14 205.255 942.14 202.968C942.14 200.695 942.514 198.953 943.26 197.743C944.007 196.533 945.087 195.928 946.5 195.928ZM943.56 202.968C943.56 204.59 943.707 205.86 944 206.777L948.44 197.942C947.973 197.317 947.327 197.005 946.5 197.005C945.58 197.005 944.86 197.497 944.34 198.481C943.82 199.451 943.56 200.947 943.56 202.968ZM946.5 208.931C947.433 208.931 948.16 208.446 948.68 207.475C949.2 206.492 949.46 204.989 949.46 202.968C949.46 201.253 949.293 199.923 948.96 198.979L944.52 207.894C945 208.586 945.66 208.931 946.5 208.931Z" fill="url(#paint88_linear_175_1901)"/>
<path d="M983.64 -9.2072C985.067 -9.2072 986.147 -8.60224 986.88 -7.39232C987.627 -6.1957 988 -4.45395 988 -2.16707C988 0.119804 987.627 1.86821 986.88 3.07812C986.147 4.28804 985.067 4.893 983.64 4.893C982.227 4.893 981.147 4.28804 980.401 3.07812C979.654 1.86821 979.281 0.119804 979.281 -2.16707C979.281 -4.44065 979.654 -6.1824 980.401 -7.39232C981.147 -8.60224 982.227 -9.2072 983.64 -9.2072ZM980.701 -2.16707C980.701 -0.544985 980.847 0.72477 981.14 1.64218L985.58 -7.19288C985.114 -7.81779 984.467 -8.13024 983.64 -8.13024C982.72 -8.13024 982 -7.63829 981.48 -6.6544C980.96 -5.68381 980.701 -4.18803 980.701 -2.16707ZM983.64 3.7961C984.574 3.7961 985.3 3.3108 985.82 2.34021C986.34 1.35632 986.6 -0.146111 986.6 -2.16707C986.6 -3.88223 986.433 -5.21181 986.1 -6.15581L981.66 2.75902C982.14 3.45041 982.8 3.7961 983.64 3.7961Z" fill="url(#paint89_linear_175_1901)"/>
<path d="M984.84 26.4293H987.78V27.4864H980.161V26.4293H983.56V15.221L980.321 17.1555L979.761 16.2581L983.76 13.785H984.84V26.4293Z" fill="url(#paint90_linear_175_1901)"/>
<path d="M984.84 49.2221H987.78V50.2792H980.161V49.2221H983.56V38.0138L980.321 39.9483L979.761 39.0509L983.76 36.5778H984.84V49.2221Z" fill="url(#paint91_linear_175_1901)"/>
<path d="M983.64 59.1712C985.067 59.1712 986.147 59.7762 986.88 60.9861C987.627 62.1827 988 63.9245 988 66.2113C988 68.4982 987.627 70.2466 986.88 71.4565C986.147 72.6665 985.067 73.2714 983.64 73.2714C982.227 73.2714 981.147 72.6665 980.401 71.4565C979.654 70.2466 979.281 68.4982 979.281 66.2113C979.281 63.9378 979.654 62.196 980.401 60.9861C981.147 59.7762 982.227 59.1712 983.64 59.1712ZM980.701 66.2113C980.701 67.8334 980.847 69.1032 981.14 70.0206L985.58 61.1855C985.114 60.5606 984.467 60.2482 983.64 60.2482C982.72 60.2482 982 60.7401 981.48 61.724C980.96 62.6946 980.701 64.1904 980.701 66.2113ZM983.64 72.1745C984.574 72.1745 985.3 71.6892 985.82 70.7186C986.34 69.7347 986.6 68.2323 986.6 66.2113C986.6 64.4962 986.433 63.1666 986.1 62.2226L981.66 71.1374C982.14 71.8288 982.8 72.1745 983.64 72.1745Z" fill="url(#paint92_linear_175_1901)"/>
<path d="M983.64 81.964C985.067 81.964 986.147 82.569 986.88 83.7789C987.627 84.9755 988 86.7173 988 89.0041C988 91.291 987.627 93.0394 986.88 94.2493C986.147 95.4593 985.067 96.0642 983.64 96.0642C982.227 96.0642 981.147 95.4593 980.401 94.2493C979.654 93.0394 979.281 91.291 979.281 89.0041C979.281 86.7306 979.654 84.9888 980.401 83.7789C981.147 82.569 982.227 81.964 983.64 81.964ZM980.701 89.0041C980.701 90.6262 980.847 91.896 981.14 92.8134L985.58 83.9783C985.114 83.3534 984.467 83.041 983.64 83.041C982.72 83.041 982 83.5329 981.48 84.5168C980.96 85.4874 980.701 86.9832 980.701 89.0041ZM983.64 94.9673C984.574 94.9673 985.3 94.482 985.82 93.5114C986.34 92.5275 986.6 91.0251 986.6 89.0041C986.6 87.289 986.433 85.9594 986.1 85.0154L981.66 93.9302C982.14 94.6216 982.8 94.9673 983.64 94.9673Z" fill="url(#paint93_linear_175_1901)"/>
</g>
</g>
<defs>
<filter id="filter0_f_175_1901" x="-550.19" y="-718.19" width="2141.38" height="1500.38" filterUnits="userSpaceOnUse" color-interpolation-filters="sRGB">
<feFlood flood-opacity="0" result="BackgroundImageFix"/>
<feBlend mode="normal" in="SourceGraphic" in2="BackgroundImageFix" result="shape"/>
<feGaussianBlur stdDeviation="200.095" result="effect1_foregroundBlur_175_1901"/>
</filter>
<linearGradient id="paint0_linear_175_1901" x1="60.5" y1="268" x2="60.5" y2="579.381" gradientUnits="userSpaceOnUse">
<stop stop-color="#F7DD43"/>
<stop offset="1" stop-color="#F7DD43" stop-opacity="0"/>
</linearGradient>
<linearGradient id="paint1_linear_175_1901" x1="60.5" y1="268" x2="60.5" y2="579.381" gradientUnits="userSpaceOnUse">
<stop stop-color="#F7DD43"/>
<stop offset="1" stop-color="#F7DD43" stop-opacity="0"/>
</linearGradient>
<linearGradient id="paint2_linear_175_1901" x1="60.5" y1="268" x2="60.5" y2="579.381" gradientUnits="userSpaceOnUse">
<stop stop-color="#F7DD43"/>
<stop offset="1" stop-color="#F7DD43" stop-opacity="0"/>
</linearGradient>
<linearGradient id="paint3_linear_175_1901" x1="60.5" y1="268" x2="60.5" y2="579.381" gradientUnits="userSpaceOnUse">
<stop stop-color="#F7DD43"/>
<stop offset="1" stop-color="#F7DD43" stop-opacity="0"/>
</linearGradient>
<linearGradient id="paint4_linear_175_1901" x1="60.5" y1="268" x2="60.5" y2="579.381" gradientUnits="userSpaceOnUse">
<stop stop-color="#F7DD43"/>
<stop offset="1" stop-color="#F7DD43" stop-opacity="0"/>
</linearGradient>
<linearGradient id="paint5_linear_175_1901" x1="60.5" y1="268" x2="60.5" y2="579.381" gradientUnits="userSpaceOnUse">
<stop stop-color="#F7DD43"/>
<stop offset="1" stop-color="#F7DD43" stop-opacity="0"/>
</linearGradient>
<linearGradient id="paint6_linear_175_1901" x1="60.5" y1="268" x2="60.5" y2="579.381" gradientUnits="userSpaceOnUse">
<stop stop-color="#F7DD43"/>
<stop offset="1" stop-color="#F7DD43" stop-opacity="0"/>
</linearGradient>
<linearGradient id="paint7_linear_175_1901" x1="60.5" y1="268" x2="60.5" y2="579.381" gradientUnits="userSpaceOnUse">
<stop stop-color="#F7DD43"/>
<stop offset="1" stop-color="#F7DD43" stop-opacity="0"/>
</linearGradient>
<linearGradient id="paint8_linear_175_1901" x1="60.5" y1="268" x2="60.5" y2="579.381" gradientUnits="userSpaceOnUse">
<stop stop-color="#F7DD43"/>
<stop offset="1" stop-color="#F7DD43" stop-opacity="0"/>
</linearGradient>
<linearGradient id="paint9_linear_175_1901" x1="60.5" y1="268" x2="60.5" y2="579.381" gradientUnits="userSpaceOnUse">
<stop stop-color="#F7DD43"/>
<stop offset="1" stop-color="#F7DD43" stop-opacity="0"/>
</linearGradient>
<linearGradient id="paint10_linear_175_1901" x1="60.5" y1="268" x2="60.5" y2="579.381" gradientUnits="userSpaceOnUse">
<stop stop-color="#F7DD43"/>
<stop offset="1" stop-color="#F7DD43" stop-opacity="0"/>
</linearGradient>
<linearGradient id="paint11_linear_175_1901" x1="60.5" y1="268" x2="60.5" y2="579.381" gradientUnits="userSpaceOnUse">
<stop stop-color="#F7DD43"/>
<stop offset="1" stop-color="#F7DD43" stop-opacity="0"/>
</linearGradient>
<linearGradient id="paint12_linear_175_1901" x1="60.5" y1="268" x2="60.5" y2="579.381" gradientUnits="userSpaceOnUse">
<stop stop-color="#F7DD43"/>
<stop offset="1" stop-color="#F7DD43" stop-opacity="0"/>
</linearGradient>
<linearGradient id="paint13_linear_175_1901" x1="60.5" y1="268" x2="60.5" y2="579.381" gradientUnits="userSpaceOnUse">
<stop stop-color="#F7DD43"/>
<stop offset="1" stop-color="#F7DD43" stop-opacity="0"/>
</linearGradient>
<linearGradient id="paint14_linear_175_1901" x1="60.5" y1="268" x2="60.5" y2="579.381" gradientUnits="userSpaceOnUse">
<stop stop-color="#F7DD43"/>
<stop offset="1" stop-color="#F7DD43" stop-opacity="0"/>
</linearGradient>
<linearGradient id="paint15_linear_175_1901" x1="60.5" y1="268" x2="60.5" y2="579.381" gradientUnits="userSpaceOnUse">
<stop stop-color="#F7DD43"/>
<stop offset="1" stop-color="#F7DD43" stop-opacity="0"/>
</linearGradient>
<linearGradient id="paint16_linear_175_1901" x1="60.5" y1="268" x2="60.5" y2="579.381" gradientUnits="userSpaceOnUse">
<stop stop-color="#F7DD43"/>
<stop offset="1" stop-color="#F7DD43" stop-opacity="0"/>
</linearGradient>
<linearGradient id="paint17_linear_175_1901" x1="60.5" y1="268" x2="60.5" y2="579.381" gradientUnits="userSpaceOnUse">
<stop stop-color="#F7DD43"/>
<stop offset="1" stop-color="#F7DD43" stop-opacity="0"/>
</linearGradient>
<linearGradient id="paint18_linear_175_1901" x1="60.5" y1="268" x2="60.5" y2="579.381" gradientUnits="userSpaceOnUse">
<stop stop-color="#F7DD43"/>
<stop offset="1" stop-color="#F7DD43" stop-opacity="0"/>
</linearGradient>
<linearGradient id="paint19_linear_175_1901" x1="60.5" y1="268" x2="60.5" y2="579.381" gradientUnits="userSpaceOnUse">
<stop stop-color="#F7DD43"/>
<stop offset="1" stop-color="#F7DD43" stop-opacity="0"/>
</linearGradient>
<linearGradient id="paint20_linear_175_1901" x1="60.5" y1="268" x2="60.5" y2="579.381" gradientUnits="userSpaceOnUse">
<stop stop-color="#F7DD43"/>
<stop offset="1" stop-color="#F7DD43" stop-opacity="0"/>
</linearGradient>
<linearGradient id="paint21_linear_175_1901" x1="60.5" y1="268" x2="60.5" y2="579.381" gradientUnits="userSpaceOnUse">
<stop stop-color="#F7DD43"/>
<stop offset="1" stop-color="#F7DD43" stop-opacity="0"/>
</linearGradient>
<linearGradient id="paint22_linear_175_1901" x1="60.5" y1="268" x2="60.5" y2="579.381" gradientUnits="userSpaceOnUse">
<stop stop-color="#F7DD43"/>
<stop offset="1" stop-color="#F7DD43" stop-opacity="0"/>
</linearGradient>
<linearGradient id="paint23_linear_175_1901" x1="60.5" y1="268" x2="60.5" y2="579.381" gradientUnits="userSpaceOnUse">
<stop stop-color="#F7DD43"/>
<stop offset="1" stop-color="#F7DD43" stop-opacity="0"/>
</linearGradient>
<linearGradient id="paint24_linear_175_1901" x1="60.5" y1="268" x2="60.5" y2="579.381" gradientUnits="userSpaceOnUse">
<stop stop-color="#F7DD43"/>
<stop offset="1" stop-color="#F7DD43" stop-opacity="0"/>
</linearGradient>
<linearGradient id="paint25_linear_175_1901" x1="60.5" y1="268" x2="60.5" y2="579.381" gradientUnits="userSpaceOnUse">
<stop stop-color="#F7DD43"/>
<stop offset="1" stop-color="#F7DD43" stop-opacity="0"/>
</linearGradient>
<linearGradient id="paint26_linear_175_1901" x1="60.5" y1="268" x2="60.5" y2="579.381" gradientUnits="userSpaceOnUse">
<stop stop-color="#F7DD43"/>
<stop offset="1" stop-color="#F7DD43" stop-opacity="0"/>
</linearGradient>
<linearGradient id="paint27_linear_175_1901" x1="60.5" y1="268" x2="60.5" y2="579.381" gradientUnits="userSpaceOnUse">
<stop stop-color="#F7DD43"/>
<stop offset="1" stop-color="#F7DD43" stop-opacity="0"/>
</linearGradient>
<linearGradient id="paint28_linear_175_1901" x1="60.5" y1="268" x2="60.5" y2="579.381" gradientUnits="userSpaceOnUse">
<stop stop-color="#F7DD43"/>
<stop offset="1" stop-color="#F7DD43" stop-opacity="0"/>
</linearGradient>
<linearGradient id="paint29_linear_175_1901" x1="60.5" y1="268" x2="60.5" y2="579.381" gradientUnits="userSpaceOnUse">
<stop stop-color="#F7DD43"/>
<stop offset="1" stop-color="#F7DD43" stop-opacity="0"/>
</linearGradient>
<linearGradient id="paint30_linear_175_1901" x1="60.5" y1="268" x2="60.5" y2="579.381" gradientUnits="userSpaceOnUse">
<stop stop-color="#F7DD43"/>
<stop offset="1" stop-color="#F7DD43" stop-opacity="0"/>
</linearGradient>
<linearGradient id="paint31_linear_175_1901" x1="60.5" y1="268" x2="60.5" y2="579.381" gradientUnits="userSpaceOnUse">
<stop stop-color="#F7DD43"/>
<stop offset="1" stop-color="#F7DD43" stop-opacity="0"/>
</linearGradient>
<linearGradient id="paint32_linear_175_1901" x1="60.5" y1="268" x2="60.5" y2="579.381" gradientUnits="userSpaceOnUse">
<stop stop-color="#F7DD43"/>
<stop offset="1" stop-color="#F7DD43" stop-opacity="0"/>
</linearGradient>
<linearGradient id="paint33_linear_175_1901" x1="60.5" y1="268" x2="60.5" y2="579.381" gradientUnits="userSpaceOnUse">
<stop stop-color="#F7DD43"/>
<stop offset="1" stop-color="#F7DD43" stop-opacity="0"/>
</linearGradient>
<linearGradient id="paint34_linear_175_1901" x1="60.5" y1="268" x2="60.5" y2="579.381" gradientUnits="userSpaceOnUse">
<stop stop-color="#F7DD43"/>
<stop offset="1" stop-color="#F7DD43" stop-opacity="0"/>
</linearGradient>
<linearGradient id="paint35_linear_175_1901" x1="60.5" y1="268" x2="60.5" y2="579.381" gradientUnits="userSpaceOnUse">
<stop stop-color="#F7DD43"/>
<stop offset="1" stop-color="#F7DD43" stop-opacity="0"/>
</linearGradient>
<linearGradient id="paint36_linear_175_1901" x1="60.5" y1="268" x2="60.5" y2="579.381" gradientUnits="userSpaceOnUse">
<stop stop-color="#F7DD43"/>
<stop offset="1" stop-color="#F7DD43" stop-opacity="0"/>
</linearGradient>
<linearGradient id="paint37_linear_175_1901" x1="60.5" y1="268" x2="60.5" y2="579.381" gradientUnits="userSpaceOnUse">
<stop stop-color="#F7DD43"/>
<stop offset="1" stop-color="#F7DD43" stop-opacity="0"/>
</linearGradient>
<linearGradient id="paint38_linear_175_1901" x1="60.5" y1="268" x2="60.5" y2="579.381" gradientUnits="userSpaceOnUse">
<stop stop-color="#F7DD43"/>
<stop offset="1" stop-color="#F7DD43" stop-opacity="0"/>
</linearGradient>
<linearGradient id="paint39_linear_175_1901" x1="60.5" y1="268" x2="60.5" y2="579.381" gradientUnits="userSpaceOnUse">
<stop stop-color="#F7DD43"/>
<stop offset="1" stop-color="#F7DD43" stop-opacity="0"/>
</linearGradient>
<linearGradient id="paint40_linear_175_1901" x1="60.5" y1="268" x2="60.5" y2="579.381" gradientUnits="userSpaceOnUse">
<stop stop-color="#F7DD43"/>
<stop offset="1" stop-color="#F7DD43" stop-opacity="0"/>
</linearGradient>
<linearGradient id="paint41_linear_175_1901" x1="60.5" y1="268" x2="60.5" y2="579.381" gradientUnits="userSpaceOnUse">
<stop stop-color="#F7DD43"/>
<stop offset="1" stop-color="#F7DD43" stop-opacity="0"/>
</linearGradient>
<linearGradient id="paint42_linear_175_1901" x1="60.5" y1="268" x2="60.5" y2="579.381" gradientUnits="userSpaceOnUse">
<stop stop-color="#F7DD43"/>
<stop offset="1" stop-color="#F7DD43" stop-opacity="0"/>
</linearGradient>
<linearGradient id="paint43_linear_175_1901" x1="60.5" y1="268" x2="60.5" y2="579.381" gradientUnits="userSpaceOnUse">
<stop stop-color="#F7DD43"/>
<stop offset="1" stop-color="#F7DD43" stop-opacity="0"/>
</linearGradient>
<linearGradient id="paint44_linear_175_1901" x1="60.5" y1="268" x2="60.5" y2="579.381" gradientUnits="userSpaceOnUse">
<stop stop-color="#F7DD43"/>
<stop offset="1" stop-color="#F7DD43" stop-opacity="0"/>
</linearGradient>
<linearGradient id="paint45_linear_175_1901" x1="60.5" y1="268" x2="60.5" y2="579.381" gradientUnits="userSpaceOnUse">
<stop stop-color="#F7DD43"/>
<stop offset="1" stop-color="#F7DD43" stop-opacity="0"/>
</linearGradient>
<linearGradient id="paint46_linear_175_1901" x1="60.5" y1="268" x2="60.5" y2="579.381" gradientUnits="userSpaceOnUse">
<stop stop-color="#F7DD43"/>
<stop offset="1" stop-color="#F7DD43" stop-opacity="0"/>
</linearGradient>
<linearGradient id="paint47_linear_175_1901" x1="946.5" y1="-32" x2="946.5" y2="266.818" gradientUnits="userSpaceOnUse">
<stop stop-color="#F7DD43"/>
<stop offset="1" stop-color="#F7DD43" stop-opacity="0"/>
</linearGradient>
<linearGradient id="paint48_linear_175_1901" x1="946.5" y1="-32" x2="946.5" y2="266.818" gradientUnits="userSpaceOnUse">
<stop stop-color="#F7DD43"/>
<stop offset="1" stop-color="#F7DD43" stop-opacity="0"/>
</linearGradient>
<linearGradient id="paint49_linear_175_1901" x1="946.5" y1="-32" x2="946.5" y2="266.818" gradientUnits="userSpaceOnUse">
<stop stop-color="#F7DD43"/>
<stop offset="1" stop-color="#F7DD43" stop-opacity="0"/>
</linearGradient>
<linearGradient id="paint50_linear_175_1901" x1="946.5" y1="-32" x2="946.5" y2="266.818" gradientUnits="userSpaceOnUse">
<stop stop-color="#F7DD43"/>
<stop offset="1" stop-color="#F7DD43" stop-opacity="0"/>
</linearGradient>
<linearGradient id="paint51_linear_175_1901" x1="946.5" y1="-32" x2="946.5" y2="266.818" gradientUnits="userSpaceOnUse">
<stop stop-color="#F7DD43"/>
<stop offset="1" stop-color="#F7DD43" stop-opacity="0"/>
</linearGradient>
<linearGradient id="paint52_linear_175_1901" x1="946.5" y1="-32" x2="946.5" y2="266.818" gradientUnits="userSpaceOnUse">
<stop stop-color="#F7DD43"/>
<stop offset="1" stop-color="#F7DD43" stop-opacity="0"/>
</linearGradient>
<linearGradient id="paint53_linear_175_1901" x1="946.5" y1="-32" x2="946.5" y2="266.818" gradientUnits="userSpaceOnUse">
<stop stop-color="#F7DD43"/>
<stop offset="1" stop-color="#F7DD43" stop-opacity="0"/>
</linearGradient>
<linearGradient id="paint54_linear_175_1901" x1="946.5" y1="-32" x2="946.5" y2="266.818" gradientUnits="userSpaceOnUse">
<stop stop-color="#F7DD43"/>
<stop offset="1" stop-color="#F7DD43" stop-opacity="0"/>
</linearGradient>
<linearGradient id="paint55_linear_175_1901" x1="946.5" y1="-32" x2="946.5" y2="266.818" gradientUnits="userSpaceOnUse">
<stop stop-color="#F7DD43"/>
<stop offset="1" stop-color="#F7DD43" stop-opacity="0"/>
</linearGradient>
<linearGradient id="paint56_linear_175_1901" x1="946.5" y1="-32" x2="946.5" y2="266.818" gradientUnits="userSpaceOnUse">
<stop stop-color="#F7DD43"/>
<stop offset="1" stop-color="#F7DD43" stop-opacity="0"/>
</linearGradient>
<linearGradient id="paint57_linear_175_1901" x1="946.5" y1="-32" x2="946.5" y2="266.818" gradientUnits="userSpaceOnUse">
<stop stop-color="#F7DD43"/>
<stop offset="1" stop-color="#F7DD43" stop-opacity="0"/>
</linearGradient>
<linearGradient id="paint58_linear_175_1901" x1="946.5" y1="-32" x2="946.5" y2="266.818" gradientUnits="userSpaceOnUse">
<stop stop-color="#F7DD43"/>
<stop offset="1" stop-color="#F7DD43" stop-opacity="0"/>
</linearGradient>
<linearGradient id="paint59_linear_175_1901" x1="946.5" y1="-32" x2="946.5" y2="266.818" gradientUnits="userSpaceOnUse">
<stop stop-color="#F7DD43"/>
<stop offset="1" stop-color="#F7DD43" stop-opacity="0"/>
</linearGradient>
<linearGradient id="paint60_linear_175_1901" x1="946.5" y1="-32" x2="946.5" y2="266.818" gradientUnits="userSpaceOnUse">
<stop stop-color="#F7DD43"/>
<stop offset="1" stop-color="#F7DD43" stop-opacity="0"/>
</linearGradient>
<linearGradient id="paint61_linear_175_1901" x1="946.5" y1="-32" x2="946.5" y2="266.818" gradientUnits="userSpaceOnUse">
<stop stop-color="#F7DD43"/>
<stop offset="1" stop-color="#F7DD43" stop-opacity="0"/>
</linearGradient>
<linearGradient id="paint62_linear_175_1901" x1="946.5" y1="-32" x2="946.5" y2="266.818" gradientUnits="userSpaceOnUse">
<stop stop-color="#F7DD43"/>
<stop offset="1" stop-color="#F7DD43" stop-opacity="0"/>
</linearGradient>
<linearGradient id="paint63_linear_175_1901" x1="946.5" y1="-32" x2="946.5" y2="266.818" gradientUnits="userSpaceOnUse">
<stop stop-color="#F7DD43"/>
<stop offset="1" stop-color="#F7DD43" stop-opacity="0"/>
</linearGradient>
<linearGradient id="paint64_linear_175_1901" x1="946.5" y1="-32" x2="946.5" y2="266.818" gradientUnits="userSpaceOnUse">
<stop stop-color="#F7DD43"/>
<stop offset="1" stop-color="#F7DD43" stop-opacity="0"/>
</linearGradient>
<linearGradient id="paint65_linear_175_1901" x1="946.5" y1="-32" x2="946.5" y2="266.818" gradientUnits="userSpaceOnUse">
<stop stop-color="#F7DD43"/>
<stop offset="1" stop-color="#F7DD43" stop-opacity="0"/>
</linearGradient>
<linearGradient id="paint66_linear_175_1901" x1="946.5" y1="-32" x2="946.5" y2="266.818" gradientUnits="userSpaceOnUse">
<stop stop-color="#F7DD43"/>
<stop offset="1" stop-color="#F7DD43" stop-opacity="0"/>
</linearGradient>
<linearGradient id="paint67_linear_175_1901" x1="946.5" y1="-32" x2="946.5" y2="266.818" gradientUnits="userSpaceOnUse">
<stop stop-color="#F7DD43"/>
<stop offset="1" stop-color="#F7DD43" stop-opacity="0"/>
</linearGradient>
<linearGradient id="paint68_linear_175_1901" x1="946.5" y1="-32" x2="946.5" y2="266.818" gradientUnits="userSpaceOnUse">
<stop stop-color="#F7DD43"/>
<stop offset="1" stop-color="#F7DD43" stop-opacity="0"/>
</linearGradient>
<linearGradient id="paint69_linear_175_1901" x1="946.5" y1="-32" x2="946.5" y2="266.818" gradientUnits="userSpaceOnUse">
<stop stop-color="#F7DD43"/>
<stop offset="1" stop-color="#F7DD43" stop-opacity="0"/>
</linearGradient>
<linearGradient id="paint70_linear_175_1901" x1="946.5" y1="-32" x2="946.5" y2="266.818" gradientUnits="userSpaceOnUse">
<stop stop-color="#F7DD43"/>
<stop offset="1" stop-color="#F7DD43" stop-opacity="0"/>
</linearGradient>
<linearGradient id="paint71_linear_175_1901" x1="946.5" y1="-32" x2="946.5" y2="266.818" gradientUnits="userSpaceOnUse">
<stop stop-color="#F7DD43"/>
<stop offset="1" stop-color="#F7DD43" stop-opacity="0"/>
</linearGradient>
<linearGradient id="paint72_linear_175_1901" x1="946.5" y1="-32" x2="946.5" y2="266.818" gradientUnits="userSpaceOnUse">
<stop stop-color="#F7DD43"/>
<stop offset="1" stop-color="#F7DD43" stop-opacity="0"/>
</linearGradient>
<linearGradient id="paint73_linear_175_1901" x1="946.5" y1="-32" x2="946.5" y2="266.818" gradientUnits="userSpaceOnUse">
<stop stop-color="#F7DD43"/>
<stop offset="1" stop-color="#F7DD43" stop-opacity="0"/>
</linearGradient>
<linearGradient id="paint74_linear_175_1901" x1="946.5" y1="-32" x2="946.5" y2="266.818" gradientUnits="userSpaceOnUse">
<stop stop-color="#F7DD43"/>
<stop offset="1" stop-color="#F7DD43" stop-opacity="0"/>
</linearGradient>
<linearGradient id="paint75_linear_175_1901" x1="946.5" y1="-32" x2="946.5" y2="266.818" gradientUnits="userSpaceOnUse">
<stop stop-color="#F7DD43"/>
<stop offset="1" stop-color="#F7DD43" stop-opacity="0"/>
</linearGradient>
<linearGradient id="paint76_linear_175_1901" x1="946.5" y1="-32" x2="946.5" y2="266.818" gradientUnits="userSpaceOnUse">
<stop stop-color="#F7DD43"/>
<stop offset="1" stop-color="#F7DD43" stop-opacity="0"/>
</linearGradient>
<linearGradient id="paint77_linear_175_1901" x1="946.5" y1="-32" x2="946.5" y2="266.818" gradientUnits="userSpaceOnUse">
<stop stop-color="#F7DD43"/>
<stop offset="1" stop-color="#F7DD43" stop-opacity="0"/>
</linearGradient>
<linearGradient id="paint78_linear_175_1901" x1="946.5" y1="-32" x2="946.5" y2="266.818" gradientUnits="userSpaceOnUse">
<stop stop-color="#F7DD43"/>
<stop offset="1" stop-color="#F7DD43" stop-opacity="0"/>
</linearGradient>
<linearGradient id="paint79_linear_175_1901" x1="946.5" y1="-32" x2="946.5" y2="266.818" gradientUnits="userSpaceOnUse">
<stop stop-color="#F7DD43"/>
<stop offset="1" stop-color="#F7DD43" stop-opacity="0"/>
</linearGradient>
<linearGradient id="paint80_linear_175_1901" x1="946.5" y1="-32" x2="946.5" y2="266.818" gradientUnits="userSpaceOnUse">
<stop stop-color="#F7DD43"/>
<stop offset="1" stop-color="#F7DD43" stop-opacity="0"/>
</linearGradient>
<linearGradient id="paint81_linear_175_1901" x1="946.5" y1="-32" x2="946.5" y2="266.818" gradientUnits="userSpaceOnUse">
<stop stop-color="#F7DD43"/>
<stop offset="1" stop-color="#F7DD43" stop-opacity="0"/>
</linearGradient>
<linearGradient id="paint82_linear_175_1901" x1="946.5" y1="-32" x2="946.5" y2="266.818" gradientUnits="userSpaceOnUse">
<stop stop-color="#F7DD43"/>
<stop offset="1" stop-color="#F7DD43" stop-opacity="0"/>
</linearGradient>
<linearGradient id="paint83_linear_175_1901" x1="946.5" y1="-32" x2="946.5" y2="266.818" gradientUnits="userSpaceOnUse">
<stop stop-color="#F7DD43"/>
<stop offset="1" stop-color="#F7DD43" stop-opacity="0"/>
</linearGradient>
<linearGradient id="paint84_linear_175_1901" x1="946.5" y1="-32" x2="946.5" y2="266.818" gradientUnits="userSpaceOnUse">
<stop stop-color="#F7DD43"/>
<stop offset="1" stop-color="#F7DD43" stop-opacity="0"/>
</linearGradient>
<linearGradient id="paint85_linear_175_1901" x1="946.5" y1="-32" x2="946.5" y2="266.818" gradientUnits="userSpaceOnUse">
<stop stop-color="#F7DD43"/>
<stop offset="1" stop-color="#F7DD43" stop-opacity="0"/>
</linearGradient>
<linearGradient id="paint86_linear_175_1901" x1="946.5" y1="-32" x2="946.5" y2="266.818" gradientUnits="userSpaceOnUse">
<stop stop-color="#F7DD43"/>
<stop offset="1" stop-color="#F7DD43" stop-opacity="0"/>
</linearGradient>
<linearGradient id="paint87_linear_175_1901" x1="946.5" y1="-32" x2="946.5" y2="266.818" gradientUnits="userSpaceOnUse">
<stop stop-color="#F7DD43"/>
<stop offset="1" stop-color="#F7DD43" stop-opacity="0"/>
</linearGradient>
<linearGradient id="paint88_linear_175_1901" x1="946.5" y1="-32" x2="946.5" y2="266.818" gradientUnits="userSpaceOnUse">
<stop stop-color="#F7DD43"/>
<stop offset="1" stop-color="#F7DD43" stop-opacity="0"/>
</linearGradient>
<linearGradient id="paint89_linear_175_1901" x1="946.5" y1="-32" x2="946.5" y2="266.818" gradientUnits="userSpaceOnUse">
<stop stop-color="#F7DD43"/>
<stop offset="1" stop-color="#F7DD43" stop-opacity="0"/>
</linearGradient>
<linearGradient id="paint90_linear_175_1901" x1="946.5" y1="-32" x2="946.5" y2="266.818" gradientUnits="userSpaceOnUse">
<stop stop-color="#F7DD43"/>
<stop offset="1" stop-color="#F7DD43" stop-opacity="0"/>
</linearGradient>
<linearGradient id="paint91_linear_175_1901" x1="946.5" y1="-32" x2="946.5" y2="266.818" gradientUnits="userSpaceOnUse">
<stop stop-color="#F7DD43"/>
<stop offset="1" stop-color="#F7DD43" stop-opacity="0"/>
</linearGradient>
<linearGradient id="paint92_linear_175_1901" x1="946.5" y1="-32" x2="946.5" y2="266.818" gradientUnits="userSpaceOnUse">
<stop stop-color="#F7DD43"/>
<stop offset="1" stop-color="#F7DD43" stop-opacity="0"/>
</linearGradient>
<linearGradient id="paint93_linear_175_1901" x1="946.5" y1="-32" x2="946.5" y2="266.818" gradientUnits="userSpaceOnUse">
<stop stop-color="#F7DD43"/>
<stop offset="1" stop-color="#F7DD43" stop-opacity="0"/>
</linearGradient>
<clipPath id="clip0_175_1901">
<rect width="1024" height="753" fill="white"/>
</clipPath>
</defs>
</svg>
